<svg xmlns="http://www.w3.org/2000/svg" viewBox="0 0 64 64" width="64" height="64">
  <defs>
    <linearGradient id="b" x1="0" y1="0" x2="0" y2="1">
      <stop offset="0%" stop-color="#1a1a2e"/>
      <stop offset="50%" stop-color="#16213e"/>
      <stop offset="100%" stop-color="#0f3460"/>
    </linearGradient>
    <linearGradient id="f" x1="0" y1="0" x2="0" y2="1">
      <stop offset="0%" stop-color="#ffb830"/>
      <stop offset="60%" stop-color="#ff6b35"/>
      <stop offset="100%" stop-color="#e94560"/>
    </linearGradient>
    <filter id="g"><feGaussianBlur stdDeviation="2"/></filter>
  </defs>
  <!-- Body -->
  <path d="M32 4 C28 4 22 10 20 18 C18 30 16 40 16 48 C16 52 18 56 22 58 C24 58 30 56 32 52 C34 56 40 58 42 58 C46 56 48 52 48 48 C48 40 46 30 44 18 C42 10 36 4 32 4Z" fill="url(#b)"/>
  <!-- Window -->
  <circle cx="32" cy="24" r="4.5" fill="#6c63ff"/>
  <circle cx="32" cy="24" r="2.8" fill="#00d2ff"/>
  <!-- Wing L -->
  <path d="M22 44 L6 56 L22 54Z" fill="#16213e" opacity=".9"/>
  <path d="M22 46 L8 56 L22 55Z" fill="#7b6faa" opacity=".5"/>
  <!-- Wing R -->
  <path d="M42 44 L58 56 L42 54Z" fill="#16213e" opacity=".9"/>
  <path d="M42 46 L56 56 L42 55Z" fill="#7b6faa" opacity=".5"/>
  <!-- Flame -->
  <ellipse cx="32" cy="62" rx="6" ry="7" fill="url(#f)" filter="url(#g)" opacity=".8"/>
  <ellipse cx="32" cy="58" rx="3" ry="5" fill="#ffb830"/>
  <!-- Speed lines -->
  <line x1="24" y1="16" x2="24" y2="22" stroke="#00d2ff" stroke-width="1" opacity=".4"/>
  <line x1="28" y1="14" x2="28" y2="20" stroke="#00d2ff" stroke-width="1" opacity=".35"/>
  <line x1="36" y1="14" x2="36" y2="20" stroke="#00d2ff" stroke-width="1" opacity=".35"/>
  <line x1="40" y1="16" x2="40" y2="22" stroke="#00d2ff" stroke-width="1" opacity=".4"/>
  <!-- Stars -->
  <circle cx="10" cy="12" r="1.2" fill="#ffd700" opacity=".7"/>
  <circle cx="52" cy="8" r="1" fill="#ffd700" opacity=".5"/>
  <circle cx="48" cy="18" r="0.7" fill="#ffd700" opacity=".35"/>
</svg>